<?xml version="1.0" encoding="UTF-8" standalone="no"?>
<!-- Created with Inkscape (http://www.inkscape.org/) -->

<svg
   xmlns:dc="http://purl.org/dc/elements/1.1/"
   xmlns:cc="http://creativecommons.org/ns#"
   xmlns:rdf="http://www.w3.org/1999/02/22-rdf-syntax-ns#"
   xmlns:svg="http://www.w3.org/2000/svg"
   xmlns="http://www.w3.org/2000/svg"
   xmlns:sodipodi="http://sodipodi.sourceforge.net/DTD/sodipodi-0.dtd"
   xmlns:inkscape="http://www.inkscape.org/namespaces/inkscape"
   id="svg2"
   version="1.1"
   inkscape:version="0.48.4 r9939"
   width="345"
   height="231.25"
   xml:space="preserve"
   sodipodi:docname="HA Naranja.svg"
   inkscape:export-filename="/home/tomyo/Google Drive/HA/Diseño/Logos/01 - HA Color/HA-naranja.png"
   inkscape:export-xdpi="102"
   inkscape:export-ydpi="102"><metadata
     id="metadata8"><rdf:RDF><cc:Work
         rdf:about=""><dc:format>image/svg+xml</dc:format><dc:type
           rdf:resource="http://purl.org/dc/dcmitype/StillImage" /><dc:title></dc:title></cc:Work></rdf:RDF></metadata><defs
     id="defs6" /><sodipodi:namedview
     pagecolor="#ffffff"
     bordercolor="#666666"
     borderopacity="1"
     objecttolerance="10"
     gridtolerance="10"
     guidetolerance="10"
     inkscape:pageopacity="0"
     inkscape:pageshadow="2"
     inkscape:window-width="1600"
     inkscape:window-height="876"
     id="namedview4"
     showgrid="false"
     inkscape:zoom="1.0205405"
     inkscape:cx="78.432203"
     inkscape:cy="115.625"
     inkscape:window-x="0"
     inkscape:window-y="24"
     inkscape:window-maximized="1"
     inkscape:current-layer="g10" /><g
     id="g10"
     inkscape:groupmode="layer"
     inkscape:label="ink_ext_XXXXXX"
     transform="matrix(1.25,0,0,-1.25,0,231.25)"><g
       id="g12"
       transform="scale(0.1,0.1)"
       style="opacity:1;fill:#f0532d;fill-opacity:1;stroke:#03844f;stroke-opacity:1"><path
         d="m 442.73,1580.84 -0.589,1.78 -0.891,1.79 c -13.164,25.67 -44.762,45.05 -73.695,45.05 l -107.246,0 c -19.371,0 -35.489,-8.45 -44.59,-23.09 -8.555,-14.08 -8.949,-31.51 -1.114,-48.08 l 197.129,-632.477 0.731,-1.821 0.879,-1.668 c 3.117,-6.277 2.73,-20.129 -0.809,-26.113 l -0.84,-1.621 -0.777,-1.856 L 221.762,290.91 c -8.879,-16.449 -9.168,-34 -0.977,-48.301 8.668,-14.918 24.797,-23.461 44.547,-23.461 l 113.164,0 c 28.328,0 60.27,18.59 74.242,43.321 l 0.875,1.59 0.758,1.781 181.051,604.726 c 12.359,23.645 12.93,56.993 1.711,81.082 L 442.73,1580.84"
         style="fill:#f0532d;fill-opacity:1;fill-rule:nonzero;stroke:#03844f;stroke-opacity:1"
         id="path14" /><path
         d="M 2537.03,292.648 1931.55,1599 c -8.78,18.48 -24.6,29.59 -42.25,29.59 -16.94,0 -32.09,-9.85 -41.6,-26.97 l -0.77,-1.38 -0.65,-1.44 -275.42,-685.909 c -8.61,-16.563 -8.73,-34.239 -0.3,-48.594 8.66,-14.809 24.93,-23.336 44.4,-23.336 l 105.89,0 c 28.6,0 60.4,18.766 74.19,43.602 l 1.12,1.824 0.73,2.16 94.91,267.423 346.24,-726.341 -398.87,0 c -34.4,0 -62.41,-28.047 -62.41,-62.578 l 0,-84.551 c 0,-34.441 28.01,-62.469 62.41,-62.469 l 651.94,0 c 19.1,0 35.34,8.309 44.53,22.719 9.05,14.48 9.54,32.719 1.39,49.898"
         style="fill:#f0532d;fill-opacity:1;fill-rule:nonzero;stroke:#03844f;stroke-opacity:1"
         id="path16" /><path
         d="m 2415.55,1520.1 38.57,0 c 13.4,0.31 22.67,2.44 27.95,6.29 5.12,3.88 7.73,10.82 7.73,20.83 0,10.34 -2.61,17.35 -7.73,21.09 -5.28,3.73 -14.55,5.52 -27.95,5.52 l -38.57,0 0,-53.73 z m 59.59,-6.02 0,-1.01 c 9.82,-1.66 16.33,-8.17 19.66,-19.55 l 16.55,-42.13 -17.09,0 -15.56,41.17 c -4,10.38 -11.69,15.5 -23.09,15.5 l -40.06,0.49 0,-57.16 -16.14,0 0,133.95 c 11.78,1.01 30.11,1.47 55.24,1.47 18.73,0 31.95,-2.74 39.61,-8.22 7.7,-5.46 11.54,-15.52 11.54,-29.9 0,-10.96 -2.34,-19.29 -7,-24.57 -4.7,-5.39 -12.53,-8.71 -23.66,-10.04 z m -25.49,-95.34 c 26.69,0 49.78,9.74 69.18,29.07 19.43,19.46 29.14,42.91 29.14,70.33 0,27.4 -9.6,50.85 -28.86,70.23 -19.19,19.46 -42.43,29.13 -69.46,29.13 -27.15,0 -50.35,-9.67 -69.49,-29.13 -19.35,-19.38 -28.91,-42.83 -28.91,-70.23 0,-27.42 9.56,-50.87 28.91,-70.33 19.14,-19.33 42.34,-29.07 69.49,-29.07 z m 0,210.72 c 30.7,0 56.97,-10.85 78.81,-32.58 21.62,-21.67 32.59,-48 32.59,-78.74 0,-31.17 -10.97,-57.54 -32.59,-79.36 -21.84,-21.7 -48.11,-32.57 -78.81,-32.57 -31.08,0 -57.61,10.87 -79.3,32.57 -21.72,21.82 -32.64,48.19 -32.64,79.36 0,30.74 10.92,57.07 32.64,78.74 21.69,21.73 48.22,32.58 79.3,32.58"
         style="fill:#f0532d;fill-opacity:1;fill-rule:nonzero;stroke:#03844f;stroke-opacity:1"
         id="path18" /><path
         d="m 1236.73,927.645 0.57,1.757 191.37,628.368 c 8.54,16.36 8.63,33.98 0.33,48.32 -8.79,14.82 -24.98,23.37 -44.54,23.37 l -112.29,0 c -28.63,0 -60.43,-18.97 -74.01,-44.14 l -0.86,-1.45 -0.64,-1.73 -154.11,-529.3 -147.163,0 -30.133,-103.594 c -11.957,-23.848 -12.129,-57.391 -0.293,-81.266 l 22.133,-81.539 147.156,0 160.86,-519.519 0.78,-1.902 0.85,-1.7 c 13.52,-25.25 45.27,-44.172 73.87,-44.172 l 108.45,0 c 19.48,0 35.67,8.43 44.46,23.161 8.53,14.171 8.59,31.652 0.44,48.242 l -186.69,606.265 -0.71,1.7 -1.08,1.699 c -3.22,6.094 -3.08,19.851 0.26,25.957 l 0.99,1.473"
         style="fill:#f0532d;fill-opacity:1;fill-rule:nonzero;stroke:#03844f;stroke-opacity:1"
         id="path20" /></g></g></svg>